#!OML:ASF F:\VICON\USERDATA\INSTALL\Justin_Nancy\Justin_Nancy.ASF
:FULLY-SPECIFIED
:DEGREES
16
root 10.3822 17.6186 -25.8711 1.63757 -0.878323 3.33488
lowerback 4.92196 -2.08908 -4.77453
upperback 0.591177 -2.98236 2.77418
thorax -1.75537 -1.4555 5.74463
lowerneck -14.4871 -2.69395 -8.88404
upperneck 21.4425 -2.32328 3.11149
head 9.29817 -1.47447 2.26756
rclavicle 4.21423e-014 -1.59028e-015
rhumerus -38.2681 -21.1496 -70.3871
rradius 24.6379
rwrist 12.952
rhand -13.7992 10.7508
rfingers 7.12502
rthumb 12.3227 -18.866
lclavicle 4.21423e-014 -1.59028e-015
lhumerus -23.2481 5.45518 87.329
lradius 30.3206
lwrist -8.36498
lhand -15.6984 24.3765
lfingers 7.12502
lthumb 10.4911 54.0947
rfemur -21.7954 3.75543 20.1985
rtibia 16.5367
rfoot 3.97341 -0.666346
rtoes 1.20783
lfemur 8.19886 -4.87773 -27.1854
ltibia 26.8377
lfoot -3.15842 -8.91769
ltoes -18.1079
17
root 10.3579 17.6419 -25.7193 1.60091 -0.89851 3.24221
lowerback 4.95239 -2.03244 -4.67178
upperback 0.77504 -2.90151 2.77427
thorax -1.59797 -1.42509 5.67804
lowerneck -15.3497 -2.89583 -8.81798
upperneck 21.7051 -2.51866 3.03717
head 9.56253 -1.5665 2.20245
rclavicle 3.77691e-015 -5.56597e-015
rhumerus -37.8798 -22.2614 -70.028
rradius 24.1327
rwrist 13.9379
rhand -13.5943 11.5402
rfingers 7.12502
rthumb 12.5203 -18.0647
lclavicle 3.77691e-015 -5.56597e-015
lhumerus -23.0848 6.16791 87.2904
lradius 30.0205
lwrist -8.73312
lhand -16.8556 20.403
lfingers 7.12502
lthumb 9.37468 50.1745
rfemur -21.1958 3.97571 20.3996
rtibia 16.6448
rfoot 3.64974 -0.8247
rtoes 1.40177
lfemur 7.49429 -4.89383 -26.9191
ltibia 28.5686
lfoot -1.3574 -9.23337
ltoes -19.7857
18
root 10.3322 17.6703 -25.5715 1.56632 -0.927252 3.00377
lowerback 4.69013 -1.86233 -4.67905
upperback 1.49251 -2.65915 3.08504
thorax -0.725128 -1.35014 5.96534
lowerneck -17.6259 -3.35465 -9.30216
upperneck 22.1693 -2.80763 3.10165
head 10.1862 -1.72359 2.25311
rclavicle 5.12864e-014 1.19271e-014
rhumerus -36.245 -23.4702 -69.9094
rradius 23.732
rwrist 14.3589
rhand -13.6547 11.3535
rfingers 7.12502
rthumb 12.4621 -18.255
lclavicle 5.12864e-014 1.19271e-014
lhumerus -21.8331 6.73776 87.9191
lradius 29.6374
lwrist -8.79345
lhand -15.945 23.8174
lfingers 7.12502
lthumb 10.2532 53.5475
rfemur -20.5707 4.1416 20.7822
rtibia 16.7126
rfoot 3.17574 -1.30138
rtoes 2.94896
lfemur 6.67534 -4.72136 -26.4143
ltibia 30.3754
lfoot 0.529451 -9.73834
ltoes -22.4951
19
root 10.3111 17.6981 -25.4219 1.36092 -1.00804 2.91647
lowerback 4.92163 -1.90753 -4.56013
upperback 0.773612 -2.72464 2.95321
thorax -1.60199 -1.33702 5.79227
lowerneck -14.7937 -3.06328 -9.2529
upperneck 21.7172 -2.75085 3.25052
head 9.48984 -1.69128 2.32305
rclavicle 1.68967e-014 -1.43125e-014
rhumerus -37.9388 -22.4028 -69.9073
rradius 24.1036
rwrist 13.6646
rhand -13.7078 10.6542
rfingers 7.12502
rthumb 12.4108 -18.9574
lclavicle 1.68967e-014 -1.43125e-014
lhumerus -23.8191 7.13438 87.3644
lradius 29.7418
lwrist -9.15989
lhand -15.6627 23.1013
lfingers 7.12502
lthumb 10.5255 52.8178
rfemur -19.7704 4.0879 21.0324
rtibia 16.7704
rfoot 2.62447 -1.23126
rtoes 4.66853
lfemur 5.90686 -4.61476 -26.1634
ltibia 32.2282
lfoot 3.60088 -10.4841
ltoes -20.6761
20
root 10.2947 17.7173 -25.2736 1.23249 -1.17701 2.7362
lowerback 4.47036 -1.78187 -4.65036
upperback 1.15458 -2.54148 3.22114
thorax -0.963029 -1.27556 6.0869
lowerneck -14.9905 -3.1661 -9.54738
upperneck 21.5638 -2.77552 3.16572
head 9.4807 -1.73096 2.33588
rclavicle 2.43511e-014 1.19271e-014
rhumerus -37.4348 -22.1703 -69.8618
rradius 24.238
rwrist 13.3109
rhand -13.6864 10.4863
rfingers 7.12502
rthumb 12.4315 -19.124
lclavicle 2.43511e-014 1.19271e-014
lhumerus -23.3603 7.55356 87.8292
lradius 29.5281
lwrist -9.34435
lhand -15.0879 24.0159
lfingers 7.12502
lthumb 11.08 53.7034
rfemur -19.0636 3.81131 21.4201
rtibia 16.6947
rfoot 2.3494 -0.66771
rtoes 5.82104
lfemur 4.99786 -4.47436 -25.8599
ltibia 34.1463
lfoot 6.1413 -10.7229
ltoes -19.0242
21
root 10.2766 17.7331 -25.1257 1.23294 -1.23179 2.54859
lowerback 4.82588 -1.80949 -3.80059
upperback 1.41598 -2.55389 2.83871
thorax -0.946788 -1.28636 5.20982
lowerneck -17.2212 -3.30195 -9.31335
upperneck 22.4273 -2.87793 3.49289
head 10.2114 -1.71979 2.39061
rclavicle 3.77691e-014 -8.74653e-015
rhumerus -36.7374 -22.9191 -70.5935
rradius 24.1188
rwrist 13.6487
rhand -13.2707 10.7652
rfingers 7.12502
rthumb 12.8323 -18.8204
lclavicle 3.77691e-014 -8.74653e-015
lhumerus -22.9209 7.43857 87.366
lradius 29.556
lwrist -8.85696
lhand -14.0729 28.2897
lfingers 7.12502
lthumb 12.0588 57.9223
rfemur -18.4241 3.36201 21.8151
rtibia 16.5181
rfoot 2.23778 -0.0664547
rtoes 6.7641
lfemur 3.81557 -4.00852 -25.4005
ltibia 36.1211
lfoot 8.26295 -11.4381
ltoes -18.1584
22
root 10.2586 17.7563 -24.9716 1.17123 -1.20932 2.26179
lowerback 4.99166 -1.83617 -3.55842
upperback 0.818469 -2.57923 2.87226
thorax -1.66294 -1.26794 5.13171
lowerneck -15.2422 -3.15447 -9.18331
upperneck 22.0863 -2.89159 3.40599
head 9.71366 -1.73696 2.34769
rclavicle -5.06901e-015 3.18055e-015
rhumerus -37.9649 -22.173 -70.4099
rradius 24.2798
rwrist 13.4149
rhand -13.2621 10.4899
rfingers 7.12502
rthumb 12.8406 -19.0951
lclavicle -5.06901e-015 3.18055e-015
lhumerus -24.6679 7.47783 87.12
lradius 29.6328
lwrist -8.57259
lhand -14.2949 27.9535
lfingers 7.12502
lthumb 11.8447 57.5985
rfemur -17.463 2.9786 22.2799
rtibia 15.9591
rfoot 2.17742 0.338624
rtoes 8.10947
lfemur 2.5416 -3.53955 -24.8232
ltibia 38.2996
lfoot 10.1754 -12.2324
ltoes -16.9978
23
root 10.2383 17.7809 -24.8224 1.10227 -1.01219 2.01377
lowerback 4.8873 -1.85015 -3.34358
upperback 0.680102 -2.58282 2.90412
thorax -1.75521 -1.2657 5.04248
lowerneck -14.4193 -3.13907 -8.99476
upperneck 21.8024 -2.96861 3.27936
head 9.45929 -1.77315 2.26622
rclavicle 4.91992e-014 -2.54444e-014
rhumerus -38.2874 -21.5146 -70.6934
rradius 24.4687
rwrist 12.8878
rhand -13.6011 9.92701
rfingers 7.12502
rthumb 12.5137 -19.6783
lclavicle 4.91992e-014 -2.54444e-014
lhumerus -25.3037 7.51668 87.0307
lradius 29.5976
lwrist -8.96213
lhand -14.5076 26.2085
lfingers 7.12502
lthumb 11.6396 55.8652
rfemur -16.318 2.68917 22.6781
rtibia 15.0475
rfoot 2.17116 0.677803
rtoes 8.6029
lfemur 1.26917 -3.40687 -24.2896
ltibia 40.6034
lfoot 12.5389 -12.3448
ltoes -12.0871
24
root 10.2141 17.8178 -24.6737 1.03997 -0.694114 1.47114
lowerback 4.78059 -1.96193 -2.86919
upperback 0.641784 -2.70133 3.08133
thorax -1.73537 -1.32745 4.96108
lowerneck -14.0356 -3.16372 -8.83788
upperneck 21.6884 -3.01806 3.02352
head 9.34517 -1.8125 2.14726
rclavicle 5.15846e-014 -3.33958e-014
rhumerus -38.3637 -20.7839 -70.9704
rradius 24.736
rwrist 12.4728
rhand -13.4082 10.5353
rfingers 7.12502
rthumb 12.6997 -19.0585
lclavicle 5.15846e-014 -3.33958e-014
lhumerus -25.6836 7.50798 87.0436
lradius 29.5495
lwrist -9.03158
lhand -14.8908 24.5641
lfingers 7.12502
lthumb 11.27 54.2413
rfemur -14.9943 2.79431 23.3359
rtibia 13.8649
rfoot 2.21914 0.40349
rtoes 8.61528
lfemur -0.2295 -3.1365 -23.3897
ltibia 43.0723
lfoot 14.7691 -12.9894
ltoes -8.75418
25
root 10.1933 17.844 -24.5236 0.872439 -0.749187 0.836209
lowerback 4.94397 -1.93806 -2.33642
upperback 0.593736 -2.63761 3.32022
thorax -1.89607 -1.29414 4.9139
lowerneck -13.9873 -3.1651 -9.01095
upperneck 21.8843 -2.98566 3.02486
head 9.40673 -1.81572 2.18219
rclavicle 1.58034e-014 -1.59028e-015
rhumerus -38.295 -19.9452 -71.2683
rradius 24.9257
rwrist 11.9886
rhand -13.3286 10.9765
rfingers 7.12502
rthumb 12.7764 -18.6126
lclavicle 1.58034e-014 -1.59028e-015
lhumerus -26.1389 7.48552 87.1707
lradius 29.5497
lwrist -9.05402
lhand -14.8991 24.9565
lfingers 7.12502
lthumb 11.2621 54.6342
rfemur -13.5041 2.96459 24.154
rtibia 12.4985
rfoot 2.39069 0.327107
rtoes 8.29506
lfemur -1.53494 -2.67136 -22.4239
ltibia 45.527
lfoot 16.5941 -13.4632
ltoes -6.9654
26
root 10.1641 17.8629 -24.3958 0.731544 -0.37798 0.437846
lowerback 5.20846 -1.90572 -1.98615
upperback 0.627096 -2.57559 3.36174
thorax -2.02956 -1.26302 4.76596
lowerneck -14.1777 -3.21129 -9.16525
upperneck 22.1176 -3.0897 3.41767
head 9.53865 -1.83627 2.33208
rclavicle 4.01545e-014 -3.97569e-015
rhumerus -38.1146 -19.9384 -71.5627
rradius 25.0749
rwrist 11.8559
rhand -13.3912 10.8574
rfingers 7.12502
rthumb 12.7161 -18.7354
lclavicle 4.01545e-014 -3.97569e-015
lhumerus -26.0976 6.90882 87.3058
lradius 29.3048
lwrist -8.64843
lhand -14.8453 27.1785
lfingers 7.12502
lthumb 11.3139 56.8533
rfemur -11.9486 2.74139 24.7026
rtibia 10.7905
rfoot 2.74054 0.255155
rtoes 8.50667
lfemur -2.97338 -2.6704 -21.6749
ltibia 48.0101
lfoot 18.7093 -13.5961
ltoes -4.53518
27
root 10.1368 17.8774 -24.2556 0.564772 -0.0768969 0.0672208
lowerback 5.24515 -1.88406 -1.59483
upperback 0.886382 -2.52795 3.4016
thorax -1.80244 -1.24967 4.57709
lowerneck -14.7747 -3.26219 -9.20864
upperneck 22.2376 -3.15481 3.68802
head 9.70149 -1.83606 2.42198
rclavicle 2.33572e-014 -3.02153e-014
rhumerus -37.5003 -19.962 -71.9701
rradius 25.2777
rwrist 11.8668
rhand -13.1523 10.3396
rfingers 7.12502
rthumb 12.9464 -19.2388
lclavicle 2.33572e-014 -3.02153e-014
lhumerus -25.6618 6.26413 87.4904
lradius 29.007
lwrist -7.94464
lhand -14.5517 28.6576
lfingers 7.12502
lthumb 11.5971 58.3167
rfemur -10.3069 2.38748 25.2522
rtibia 9.03353
rfoot 3.05167 0.371301
rtoes 9.26652
lfemur -4.21457 -2.60191 -20.9497
ltibia 50.3788
lfoot 21.2782 -13.4264
ltoes -0.591102
28
root 10.1073 17.8877 -24.1187 0.341668 0.246729 -0.589082
lowerback 5.44057 -1.86386 -1.06416
upperback 1.04802 -2.46883 3.60746
thorax -1.7638 -1.22525 4.49173
lowerneck -15.7908 -3.42127 -9.70656
upperneck 22.8744 -3.27478 4.1846
head 10.148 -1.87826 2.66378
rclavicle -8.05078e-015 4.05521e-014
rhumerus -37.0758 -19.3694 -72.4328
rradius 25.7874
rwrist 11.2737
rhand -12.5925 9.55525
rfingers 7.12502
rthumb 13.486 -19.9881
lclavicle -8.05078e-015 4.05521e-014
lhumerus -25.4539 5.82513 87.6869
lradius 28.8493
lwrist -7.91694
lhand -14.0698 29.1877
lfingers 7.12502
lthumb 12.0618 58.8201
rfemur -8.61409 2.00663 26.1457
rtibia 7.28636
rfoot 3.3905 0.437263
rtoes 9.74967
lfemur -5.4553 -2.46882 -19.8774
ltibia 52.64
lfoot 24.2146 -12.7334
ltoes 4.12411
29
root 10.0804 17.902 -23.985 0.144609 0.468599 -1.00918
lowerback 5.59136 -1.83713 -0.872671
upperback 0.944111 -2.41455 3.75536
thorax -1.96141 -1.19451 4.54366
lowerneck -14.9839 -3.45031 -9.50384
upperneck 22.5686 -3.37991 3.90694
head 9.88535 -1.94402 2.52001
rclavicle 1.77912e-014 7.95139e-016
rhumerus -37.2477 -18.5053 -72.7858
rradius 26.3088
rwrist 10.4961
rhand -11.9164 9.88893
rfingers 7.12502
rthumb 14.1376 -19.6101
lclavicle 1.77912e-014 7.95139e-016
lhumerus -26.0439 5.49296 87.7491
lradius 29.0661
lwrist -8.52798
lhand -13.9543 28.3395
lfingers 7.12502
lthumb 12.1732 57.9653
rfemur -6.6331 1.71019 26.7491
rtibia 4.91102
rfoot 4.01753 0.555028
rtoes 10.0784
lfemur -6.85304 -2.15565 -19.1098
ltibia 54.8335
lfoot 26.5567 -11.9172
ltoes 8.38816
